<svg width="80" height="80" viewBox="0 0 80 80" fill="none" xmlns="http://www.w3.org/2000/svg">
<path d="M71.9741 67.8927C71.0923 65.007 66.3629 62.5488 61.7671 60.2375C60.5647 59.6229 59.4024 59.0351 58.387 58.4606C58.077 58.2834 57.7092 58.2367 57.3647 58.3307C57.0202 58.4247 56.7272 58.6516 56.55 58.9616C56.3728 59.2716 56.3261 59.6394 56.4201 59.9839C56.514 60.3284 56.741 60.6214 57.051 60.7986C58.0931 61.3731 59.2955 61.9877 60.5246 62.6156C64.0382 64.4192 68.8478 66.8774 69.3956 68.681C70.5312 72.4351 70.5846 72.9695 70.5846 74.0249C70.6069 74.2228 70.5696 74.4228 70.4777 74.5994C69.7013 74.8225 68.8869 74.8817 68.0863 74.7731H66.8171H12.4422C11.4536 74.7731 10.0909 74.7731 9.77023 74.4925C9.66621 74.3443 9.6145 74.1657 9.62327 73.9848C9.73015 73.4905 10.131 71.727 10.9593 68.6409C11.5605 66.3029 17.5056 62.9228 28.5543 58.6209C30.1058 58.1059 31.4902 57.183 32.5623 55.9489C32.7749 55.6655 32.8661 55.3092 32.816 54.9584C32.7659 54.6077 32.5785 54.2912 32.2951 54.0786C32.0116 53.866 31.6553 53.7747 31.3045 53.8248C30.9538 53.8749 30.6373 54.0623 30.4247 54.3458C29.6586 55.1794 28.6932 55.8046 27.6191 56.1627C18.708 59.6229 9.44959 63.7512 8.34072 68.0263C7.39217 71.7137 7.00473 73.5173 7.00473 73.5974C6.99878 73.6864 6.99878 73.7757 7.00473 73.8646C6.98032 74.3311 7.05059 74.7976 7.21132 75.2362C7.37204 75.6747 7.61989 76.0761 7.93992 76.4163C9.07551 77.5252 10.7589 77.4852 12.5491 77.4585H66.8973H68.0729H69.2085C69.7801 77.5198 70.3582 77.4663 70.9088 77.3011C71.4594 77.1359 71.9715 76.8623 72.4149 76.4965C72.732 76.1685 72.9776 75.7784 73.1363 75.3507C73.2949 74.923 73.3632 74.467 73.3368 74.0116C73.2833 72.5821 73.1631 71.8072 71.9741 67.8927Z" fill="#E30611"/>
<path d="M18.7475 45.3143H22.7554C23.0989 45.3291 23.4418 45.274 23.7633 45.1523C24.0848 45.0305 24.3783 44.8448 24.6258 44.6063C24.9584 44.1687 25.2006 43.6692 25.3382 43.1371C25.4759 42.605 25.5062 42.0508 25.4274 41.5068V41.3732C25.6368 41.5166 25.8607 41.6375 26.0954 41.7339C26.7484 43.2925 27.554 44.7827 28.5002 46.1828L29.2484 47.3584C30.0529 48.8025 31.1549 50.0594 32.4815 51.0457C34.6529 52.7829 37.2972 53.8258 40.0699 54.0384C40.3013 54.0499 40.5332 54.0499 40.7646 54.0384C43.4911 53.8934 46.0789 52.7911 48.0725 50.9256C49.2709 49.9383 50.2764 48.7379 51.0384 47.3851C51.3056 46.9443 51.5728 46.5301 51.8266 46.1293C52.7834 44.7217 53.5979 43.2224 54.2581 41.6537C54.4547 41.5698 54.6427 41.4669 54.8193 41.3464V41.4667C54.7382 42.0107 54.7674 42.5654 54.9052 43.0979C55.0429 43.6304 55.2863 44.1297 55.6209 44.5662C55.7735 44.7214 55.9493 44.8521 56.1419 44.9536C56.0484 48.0932 55.2735 54.1854 52.321 55.2408C51.6545 54.7756 50.8625 54.5239 50.0498 54.5193C49.7351 54.5211 49.4215 54.557 49.1146 54.6262L42.6216 56.176C41.6637 56.4017 40.8222 56.9721 40.2577 57.7783C39.6932 58.5846 39.4451 59.5703 39.5607 60.5477C39.6762 61.5252 40.1474 62.4259 40.8844 63.0782C41.6214 63.7306 42.5726 64.089 43.5568 64.0851C43.8671 64.0825 44.1761 64.0466 44.4787 63.9781L50.9716 62.4284C51.4839 62.3074 51.9674 62.0867 52.3944 61.7788C52.8214 61.4709 53.1836 61.082 53.4603 60.6341C53.737 60.1862 53.9227 59.6883 54.0068 59.1686C54.091 58.649 54.072 58.1178 53.9509 57.6055V57.4719C58.0791 55.3476 58.7604 48.347 58.854 45.2743H61.5259C62.6213 45.2139 63.6842 44.8803 64.6176 44.3039C65.551 43.7275 66.3253 42.9266 66.8699 41.9743C67.7353 40.067 68.183 37.9968 68.183 35.9023C68.183 33.8078 67.7353 31.7375 66.8699 29.8302C66.3195 28.8862 65.5428 28.0939 64.6099 27.5249C63.677 26.9558 62.6172 26.6278 61.5259 26.5704C61.6884 23.6672 61.2569 20.7614 60.2578 18.0307C59.2586 15.3001 57.7129 12.802 55.7151 10.6893C53.7173 8.57653 51.3094 6.89359 48.6389 5.74342C45.9683 4.59325 43.0912 4 40.1835 4C37.2758 4 34.3986 4.59325 31.728 5.74342C29.0575 6.89359 26.6496 8.57653 24.6519 10.6893C22.6541 12.802 21.1083 15.3001 20.1092 18.0307C19.11 20.7614 18.6785 23.6672 18.841 26.5704C17.7472 26.6306 16.6857 26.9626 15.7526 27.5365C14.8194 28.1104 14.0442 28.9079 13.497 29.8569C12.6296 31.7661 12.1809 33.8387 12.1809 35.9357C12.1809 38.0326 12.6296 40.1053 13.497 42.0144C14.034 42.9533 14.7939 43.7455 15.7096 44.321C16.6253 44.8965 17.6686 45.2377 18.7475 45.3143ZM50.357 59.8633L43.8641 61.4131C43.693 61.4548 43.5154 61.4624 43.3414 61.4352C43.1674 61.4081 43.0005 61.3468 42.8503 61.255C42.7 61.1631 42.5694 61.0424 42.466 60.8998C42.3626 60.7573 42.2883 60.5958 42.2476 60.4244C42.2058 60.2534 42.1983 60.0757 42.2254 59.9017C42.2526 59.7277 42.3138 59.5608 42.4057 59.4105C42.4976 59.2603 42.6183 59.1297 42.7608 59.0263C42.9033 58.9229 43.0649 58.8486 43.2362 58.8079L49.7425 57.2715C49.8444 57.2576 49.9478 57.2576 50.0498 57.2715C50.4041 57.2308 50.7601 57.3324 51.0395 57.5541C51.3188 57.7759 51.4987 58.0995 51.5394 58.4538C51.5802 58.8081 51.4785 59.1641 51.2567 59.4435C51.035 59.7229 50.7114 59.9028 50.357 59.9435V59.8633ZM53.7371 38.7146C53.5931 38.982 53.3551 39.1867 53.0691 39.289C52.8289 39.3231 52.6025 39.4219 52.4142 39.5749C52.2259 39.7279 52.0828 39.9293 52.0003 40.1574C51.368 41.7688 50.5521 43.3019 49.5688 44.7265L48.7539 46.0625C48.1568 47.1549 47.3591 48.1249 46.4025 48.9216C42.9556 51.7806 40.5108 51.4465 40.4306 51.4332C40.3465 51.4201 40.2609 51.4201 40.1768 51.4332C37.9501 51.2341 35.8312 50.3839 34.0847 48.9883C33.0359 48.1908 32.1627 47.1857 31.5196 46.0358C31.2657 45.6083 31.0119 45.2075 30.758 44.8067C29.7717 43.3787 28.9641 41.8353 28.3532 40.2109C28.2511 39.9664 28.0836 39.7549 27.8691 39.5993C27.6547 39.4438 27.4016 39.3503 27.1375 39.3291C26.8488 39.2314 26.6093 39.0255 26.4695 38.7546C26.3626 38.5675 26.2119 38.409 26.0305 38.2927C25.849 38.1763 25.6421 38.1057 25.4274 38.0866V33.3572C25.5917 33.3821 25.7595 33.3714 25.9193 33.3259C26.0791 33.2804 26.2273 33.2012 26.354 33.0936C26.4806 32.986 26.5826 32.8524 26.6533 32.702C26.7239 32.5516 26.7615 32.3878 26.7634 32.2216C26.9057 29.3435 27.5523 26.5127 28.6739 23.8583C31.0119 18.3941 34.9263 15.6286 40.444 15.6286C53.8039 15.6286 53.8039 31.2731 53.8039 31.9411C53.8039 32.6091 54.846 33.2771 54.846 33.2771V38.1134C54.6259 38.1145 54.4096 38.17 54.2161 38.2748C54.0227 38.3797 53.8581 38.5308 53.7371 38.7146ZM64.425 31.0059C65.1238 32.5578 65.4851 34.2404 65.4851 35.9424C65.4851 37.6443 65.1238 39.3269 64.425 40.8789C64.0946 41.3735 63.6582 41.7884 63.1475 42.0934C62.6368 42.3984 62.0647 42.5859 61.4725 42.6423H57.4645C57.443 42.2686 57.443 41.8939 57.4645 41.5201V30.418C57.4433 30.0442 57.4433 29.6696 57.4645 29.2958H61.4725C62.0625 29.3441 62.6344 29.5226 63.1472 29.8182C63.66 30.1139 64.101 30.5195 64.4384 31.0059H64.425ZM40.11 7.90654C45.0448 7.98903 49.7544 9.98612 53.2444 13.4761C56.7343 16.966 58.7314 21.6756 58.8139 26.6104H57.4779C56.9223 26.5956 56.3759 26.7544 55.9148 27.0647C54.8193 21.4268 51.3724 12.8096 40.5375 12.8096C29.7026 12.8096 25.9885 21.7474 24.7327 27.5056L24.6125 27.372C24.3649 27.1334 24.0715 26.9477 23.7499 26.826C23.4284 26.7042 23.0855 26.6491 22.7421 26.6639H21.4061C21.4783 21.7185 23.4722 16.9954 26.9657 13.4944C30.4593 9.99335 35.1782 7.98931 40.1233 7.90654H40.11ZM15.7949 31.0326C16.1218 30.5358 16.5576 30.1199 17.0691 29.8166C17.5807 29.5134 18.1547 29.3307 18.7475 29.2824H22.7554C22.7767 29.6562 22.7767 30.0309 22.7554 30.4047V41.5068C22.7769 41.885 22.7769 42.2641 22.7554 42.6423H18.7475C18.1593 42.5952 17.5895 42.4156 17.0805 42.1172C16.5716 41.8188 16.1366 41.4091 15.8083 40.9189C15.1055 39.3661 14.7408 37.6816 14.7385 35.9772C14.7362 34.2727 15.0963 32.5873 15.7949 31.0326Z" fill="#E30611"/>
</svg>
