<svg width="80" height="80" viewBox="0 0 80 80" fill="none" xmlns="http://www.w3.org/2000/svg">
<path d="M40.4232 5C20.4921 5 4.13602 18.6144 4.00162 35.3603C3.90755 45.7089 7.89914 53.1545 16.9172 59.4711C17.0452 59.5896 17.1663 59.7153 17.28 59.8475C17.5488 63.6643 15.1835 67.9113 10.2511 72.6958L9.90165 73.0318C9.70637 73.2267 9.57581 73.4771 9.52772 73.7488C9.47963 74.0205 9.51635 74.3004 9.63286 74.5505C9.74083 74.7838 9.91342 74.9812 10.1302 75.1194C10.347 75.2575 10.5988 75.3306 10.8559 75.33H11.0306C21.3657 74.5236 31.9159 66.9302 33.7975 65.5056L34.6173 65.4249C35.8134 65.5728 39.2405 65.9088 40.477 65.9088C60.5559 65.9088 76.8852 52.1868 76.8852 35.4409C76.8852 18.6951 60.5021 5 40.4232 5ZM40.3292 63.0461C39.1733 63.0461 35.4505 62.7773 34.7651 62.6564C34.618 62.6363 34.4688 62.6363 34.3216 62.6564L32.9776 62.8714C32.753 62.9102 32.541 63.0024 32.3594 63.1402C32.2653 63.2208 23.7177 69.86 14.6459 72.0104C18.5837 67.5215 20.3577 63.2343 19.9142 59.2292C19.9128 59.1227 19.89 59.0176 19.847 58.9201C19.5874 58.3408 19.1908 57.8334 18.6912 57.4417L18.5434 57.3208C10.1436 51.4745 6.60893 44.9159 6.68957 35.3872C6.8374 20.1062 21.9571 7.68794 40.4232 7.68794C58.8894 7.68794 74.1972 20.1062 74.1972 35.3737C74.1972 50.6413 59.0103 63.0461 40.3292 63.0461Z" fill="#E30611"/>
<path d="M24.9667 30.9791C23.9035 30.9791 22.8641 31.2944 21.9801 31.8851C21.096 32.4758 20.407 33.3154 20.0001 34.2977C19.5932 35.28 19.4867 36.3609 19.6941 37.4037C19.9016 38.4466 20.4136 39.4044 21.1654 40.1563C21.9173 40.9081 22.8751 41.4201 23.918 41.6275C24.9608 41.835 26.0417 41.7285 27.024 41.3216C28.0063 40.9147 28.8459 40.2257 29.4366 39.3416C30.0273 38.4576 30.3426 37.4182 30.3426 36.3549C30.3426 34.9292 29.7762 33.5618 28.7681 32.5536C27.7599 31.5455 26.3925 30.9791 24.9667 30.9791ZM24.9667 39.0429C24.4351 39.0429 23.9154 38.8852 23.4734 38.5899C23.0314 38.2945 22.6869 37.8747 22.4834 37.3836C22.28 36.8924 22.2267 36.352 22.3305 35.8306C22.4342 35.3091 22.6902 34.8302 23.0661 34.4543C23.442 34.0784 23.9209 33.8224 24.4423 33.7187C24.9637 33.6149 25.5042 33.6682 25.9954 33.8716C26.4865 34.0751 26.9063 34.4196 27.2017 34.8616C27.497 35.3036 27.6547 35.8233 27.6547 36.3549C27.6547 37.0678 27.3715 37.7515 26.8674 38.2556C26.3633 38.7597 25.6796 39.0429 24.9667 39.0429Z" fill="#E30611"/>
<path d="M39.7504 30.9791C38.6872 30.9791 37.6478 31.2944 36.7637 31.8851C35.8797 32.4758 35.1906 33.3154 34.7838 34.2977C34.3769 35.28 34.2704 36.3609 34.4778 37.4037C34.6853 38.4466 35.1973 39.4044 35.9491 40.1563C36.7009 40.9081 37.6588 41.4201 38.7016 41.6275C39.7445 41.835 40.8254 41.7285 41.8077 41.3216C42.79 40.9147 43.6296 40.2257 44.2203 39.3416C44.811 38.4576 45.1263 37.4182 45.1263 36.3549C45.1263 34.9292 44.5599 33.5618 43.5517 32.5536C42.5436 31.5455 41.1762 30.9791 39.7504 30.9791ZM39.7504 39.0429C39.2188 39.0429 38.6991 38.8852 38.2571 38.5899C37.8151 38.2945 37.4705 37.8747 37.2671 37.3836C37.0637 36.8924 37.0104 36.352 37.1141 35.8306C37.2178 35.3091 37.4738 34.8302 37.8498 34.4543C38.2257 34.0784 38.7046 33.8224 39.226 33.7187C39.7474 33.6149 40.2879 33.6682 40.779 33.8716C41.2702 34.0751 41.69 34.4196 41.9854 34.8616C42.2807 35.3036 42.4384 35.8233 42.4384 36.3549C42.4384 37.0678 42.1552 37.7515 41.6511 38.2556C41.147 38.7597 40.4633 39.0429 39.7504 39.0429Z" fill="#E30611"/>
<path d="M54.5341 30.9791C53.4708 30.9791 52.4315 31.2944 51.5474 31.8851C50.6634 32.4758 49.9743 33.3154 49.5674 34.2977C49.1605 35.28 49.0541 36.3609 49.2615 37.4037C49.4689 38.4466 49.981 39.4044 50.7328 40.1563C51.4846 40.9081 52.4425 41.4201 53.4853 41.6275C54.5281 41.835 55.609 41.7285 56.5913 41.3216C57.5737 40.9147 58.4133 40.2257 59.004 39.3416C59.5947 38.4576 59.91 37.4182 59.91 36.3549C59.91 34.9292 59.3436 33.5618 58.3354 32.5536C57.3272 31.5455 55.9599 30.9791 54.5341 30.9791ZM54.5341 39.0429C54.0025 39.0429 53.4828 38.8852 53.0408 38.5899C52.5987 38.2945 52.2542 37.8747 52.0508 37.3836C51.8473 36.8924 51.7941 36.352 51.8978 35.8306C52.0015 35.3091 52.2575 34.8302 52.6334 34.4543C53.0093 34.0784 53.4883 33.8224 54.0097 33.7187C54.5311 33.6149 55.0716 33.6682 55.5627 33.8716C56.0539 34.0751 56.4737 34.4196 56.769 34.8616C57.0644 35.3036 57.222 35.8233 57.222 36.3549C57.222 37.0678 56.9388 37.7515 56.4348 38.2556C55.9307 38.7597 55.247 39.0429 54.5341 39.0429Z" fill="#E30611"/>
</svg>
