<svg width="64" height="16" viewBox="0 0 64 16" fill="none" xmlns="http://www.w3.org/2000/svg">
<path fill-rule="evenodd" clip-rule="evenodd" d="M0 9.68896C0 12.8312 1.75618 16 5.68883 16C9.61791 16 11.3776 12.8312 11.3776 9.68896C11.3776 7.54257 10.656 5.07094 9.45154 3.07454C8.28023 1.1467 6.87288 0 5.68883 0C4.50142 0 3.09343 1.1467 1.93229 3.07454C0.722141 5.07094 0 7.54257 0 9.68896Z" fill="#E30611"/>
<path fill-rule="evenodd" clip-rule="evenodd" d="M40.3899 4.71422H36.4078V0.857178H48.6387V4.71422H44.6565V15.1428H40.3899V4.71422Z" fill="#E30611"/>
<path fill-rule="evenodd" clip-rule="evenodd" d="M57.7403 4.71439H63.9984V0.857178H57.7408C51.9909 0.857178 48.9213 3.72863 48.9213 8.00011C48.9213 12.2715 51.9909 15.143 57.7408 15.143H63.9984V11.2858H57.7403C55.0798 11.2858 53.3301 10.3304 53.3301 8.00011C53.3301 5.66975 55.0798 4.71439 57.7403 4.71439Z" fill="#E30611"/>
<path fill-rule="evenodd" clip-rule="evenodd" d="M25.4565 9.38419L27.7311 0.857178H35.2707V15.143H31.004V3.51562L27.9025 15.143H23.0104L19.911 3.52301L19.9108 15.143H15.6443V0.857178H23.1818L25.4565 9.38419Z" fill="#E30611"/>
</svg>
