<svg width="72" height="21" viewBox="0 0 72 21" fill="none" xmlns="http://www.w3.org/2000/svg">
<path d="M3.84293 15.6274C3.51353 15.6274 3.23904 15.5614 2.99199 15.4625C2.74494 15.3636 2.5528 15.1988 2.38811 15.0669C2.19596 14.902 2.03126 14.7042 1.86657 14.5065V19.0889H0V7.55042H1.86657V8.63833C2.00381 8.44052 2.16851 8.27567 2.38811 8.07792C2.5528 7.94603 2.77239 7.81414 2.99199 7.71526C3.23904 7.61633 3.51353 7.55042 3.84293 7.55042C4.28212 7.55042 4.69386 7.64935 5.07817 7.8471C5.46242 8.04491 5.81929 8.34165 6.12124 8.70425C6.42318 9.06691 6.64277 9.49548 6.83492 9.98997C6.99959 10.4845 7.10943 11.012 7.10943 11.6053C7.10943 12.1658 7.02707 12.7263 6.83492 13.2208C6.67021 13.7153 6.42318 14.1438 6.12124 14.5065C5.81929 14.8691 5.48991 15.1658 5.07817 15.3636C4.69386 15.5284 4.28212 15.6274 3.84293 15.6274ZM3.51353 9.49548C3.29393 9.49548 3.07434 9.5614 2.88219 9.66033C2.69005 9.75921 2.4979 9.8911 2.36065 10.0889C2.2234 10.2537 2.08616 10.4845 2.00381 10.7482C1.92146 11.012 1.86657 11.2757 1.86657 11.6053C1.86657 11.9021 1.92146 12.1988 2.00381 12.4625C2.08616 12.7263 2.2234 12.924 2.36065 13.1218C2.52535 13.2867 2.69005 13.4515 2.88219 13.5504C3.07434 13.6493 3.29393 13.7153 3.51353 13.7153C3.73313 13.7153 3.95272 13.6493 4.14487 13.5504C4.33701 13.4515 4.52916 13.3196 4.66641 13.1218C4.80366 12.957 4.94089 12.7263 5.02324 12.4625C5.1056 12.1988 5.16048 11.935 5.16048 11.6053C5.16048 11.3087 5.1056 11.012 5.02324 10.7482C4.94089 10.4845 4.80366 10.2867 4.66641 10.0889C4.50171 9.92406 4.33701 9.75921 4.14487 9.66033C3.92527 9.52844 3.70567 9.49548 3.51353 9.49548Z" fill="#090F5A"/>
<path d="M12.954 14.7041C12.8168 14.869 12.6521 15.0338 12.4599 15.1657C12.2952 15.2646 12.1031 15.3635 11.8561 15.4624C11.609 15.5613 11.3345 15.5943 11.0326 15.5943C10.6483 15.5943 10.3189 15.5283 9.98944 15.3635C9.66005 15.1987 9.38553 14.9679 9.16594 14.7041C8.94635 14.4074 8.75419 14.0778 8.61696 13.6492C8.47973 13.2536 8.4248 12.7591 8.4248 12.2646V7.51733H10.2914V12.0338C10.2914 12.4954 10.4012 12.858 10.6483 13.1217C10.8953 13.4185 11.1972 13.5503 11.5816 13.5503C11.9933 13.5503 12.3227 13.3855 12.5698 13.0888C12.8168 12.7921 12.954 12.3305 12.954 11.7042V7.51733H14.8207V15.5943H12.954V14.7041Z" fill="#090F5A"/>
<path d="M20.3654 10.0558C20.283 9.92393 20.2007 9.825 20.091 9.72613C19.9812 9.62725 19.8714 9.56128 19.7342 9.49536C19.597 9.42944 19.4597 9.39643 19.2676 9.39643C18.9932 9.39643 18.7737 9.4624 18.6639 9.59423C18.5542 9.72613 18.4443 9.85802 18.4443 10.0228C18.4443 10.1877 18.5267 10.3525 18.6639 10.4514C18.8011 10.5503 18.9932 10.6492 19.2402 10.7481C19.4597 10.847 19.7068 10.9459 19.9812 11.0448C20.2556 11.1437 20.5026 11.2756 20.7222 11.4404C20.9417 11.6052 21.1338 11.836 21.2984 12.0998C21.4631 12.3635 21.518 12.7262 21.518 13.1547C21.518 13.4844 21.4631 13.814 21.3533 14.1108C21.2436 14.4074 21.0515 14.6712 20.8319 14.869C20.6124 15.0997 20.3379 15.2646 19.9812 15.3965C19.6518 15.5283 19.2676 15.5943 18.8286 15.5943C18.3346 15.5943 17.9229 15.5283 17.5936 15.3635C17.2369 15.1987 16.9624 15.0338 16.7429 14.836C16.4684 14.6382 16.2489 14.3745 16.0842 14.1108L17.1271 12.9569C17.2369 13.1217 17.3741 13.2536 17.5113 13.3855C17.6485 13.4844 17.7857 13.5832 17.9504 13.6822C18.115 13.7481 18.3346 13.814 18.5542 13.814C18.856 13.814 19.103 13.7481 19.2402 13.6163C19.3774 13.4844 19.4597 13.3195 19.4597 13.1217C19.4597 12.9239 19.3774 12.7591 19.2402 12.6602C19.103 12.5613 18.9109 12.4624 18.6639 12.3635C18.4443 12.2646 18.1974 12.1657 17.9229 12.0668C17.6485 11.9679 17.4015 11.836 17.182 11.6712C16.9624 11.5063 16.7703 11.2756 16.6056 11.0119C16.441 10.7481 16.3861 10.4184 16.3861 9.95689C16.3861 9.66021 16.441 9.36347 16.5782 9.06678C16.7155 8.7701 16.8801 8.50632 17.1271 8.27555C17.3741 8.04478 17.6485 7.84698 17.9504 7.71514C18.2797 7.58325 18.609 7.51733 18.9932 7.51733C19.3774 7.51733 19.7342 7.58325 20.0361 7.71514C20.3379 7.84698 20.5849 7.97887 20.7496 8.14372C20.9691 8.34153 21.1612 8.53933 21.3259 8.7701L20.3654 10.0558Z" fill="#090F5A"/>
<path d="M24.8421 8.67078C24.9793 8.47297 25.144 8.27517 25.3362 8.07742C25.5009 7.94552 25.693 7.81363 25.9401 7.6818C26.1871 7.54991 26.4616 7.51695 26.7635 7.51695C27.1478 7.51695 27.4772 7.58287 27.8066 7.74772C28.136 7.91257 28.4105 8.14333 28.63 8.44002C28.8496 8.7367 29.0418 9.09936 29.1791 9.52793C29.3163 9.95651 29.3712 10.451 29.3712 10.9785V15.5939H27.5046V11.2752C27.5046 10.7807 27.3949 10.418 27.1478 10.1214C26.9008 9.82462 26.5988 9.69278 26.2146 9.69278C25.8028 9.69278 25.4734 9.85763 25.2264 10.1543C24.9793 10.451 24.8421 10.9125 24.8421 11.5389V15.6269H22.9756V4.08838H24.8421V8.67078Z" fill="#090F5A"/>
<path d="M40.3501 11.4071V6.95654L37.7432 11.4071H40.3501Z" fill="#090F5A"/>
<path d="M44.193 0H35.4092C33.5975 0 32.1152 1.78022 32.1152 3.95604V17.0439C32.1152 19.2198 33.5975 21 35.4092 21H44.193C46.0047 21 47.487 19.2198 47.487 17.0439V3.95604C47.487 1.78022 46.0047 0 44.193 0ZM43.5068 13.5494H42.4088V15.5934H40.3501V13.5494H35.8209V11.0769L39.9932 4.08791H42.4088V11.4066H43.5068V13.5494Z" fill="#090F5A"/>
<path d="M53.9093 10.0558C53.8267 9.92393 53.7446 9.825 53.635 9.72613C53.5249 9.62725 53.4152 9.56128 53.2781 9.49536C53.1409 9.42944 53.0038 9.39643 52.8116 9.39643C52.5373 9.39643 52.3176 9.4624 52.2079 9.59423C52.0978 9.72613 51.9882 9.85802 51.9882 10.0228C51.9882 10.1877 52.0708 10.3525 52.2079 10.4514C52.3451 10.5503 52.5373 10.6492 52.7841 10.7481C53.0038 10.847 53.2506 10.9459 53.5249 11.0448C53.7996 11.1437 54.0464 11.2756 54.2662 11.4404C54.4854 11.6052 54.6776 11.836 54.8423 12.0998C55.007 12.3635 55.062 12.7262 55.062 13.1547C55.062 13.4844 55.007 13.814 54.8973 14.1108C54.7872 14.4074 54.5955 14.6712 54.3758 14.869C54.156 15.0997 53.8817 15.2646 53.5249 15.3965C53.1955 15.5283 52.8116 15.5943 52.3726 15.5943C51.8786 15.5943 51.4667 15.5283 51.1373 15.3635C50.7809 15.1987 50.5061 15.0338 50.2869 14.836C50.0121 14.6382 49.7929 14.3745 49.6282 14.1108L50.6708 12.9569C50.7809 13.1217 50.9181 13.2536 51.0552 13.3855C51.1924 13.4844 51.3295 13.5832 51.4942 13.6822C51.6589 13.7481 51.8786 13.814 52.0978 13.814C52.3997 13.814 52.6469 13.7481 52.7841 13.6163C52.9212 13.4844 53.0038 13.3195 53.0038 13.1217C53.0038 12.9239 52.9212 12.7591 52.7841 12.6602C52.6469 12.5613 52.4547 12.4624 52.2079 12.3635C51.9882 12.2646 51.7414 12.1657 51.4667 12.0668C51.1924 11.9679 50.9456 11.836 50.7259 11.6712C50.5061 11.5063 50.3144 11.2756 50.1497 11.0119C49.9851 10.7481 49.93 10.4184 49.93 9.95689C49.93 9.66021 49.9851 9.36347 50.1222 9.06678C50.2594 8.7701 50.424 8.50632 50.6708 8.27555C50.9181 8.04478 51.1924 7.84698 51.4942 7.71514C51.8235 7.58325 52.1529 7.51733 52.5373 7.51733C52.9212 7.51733 53.2781 7.58325 53.5799 7.71514C53.8817 7.84698 54.129 7.97887 54.2932 8.14372C54.5129 8.34153 54.7051 8.53933 54.8698 8.7701L53.9093 10.0558Z" fill="#090F5A"/>
<path d="M58.5219 5.27471C58.5219 5.63735 58.4123 5.93406 58.2476 6.16483C58.0554 6.3956 57.7811 6.49447 57.4242 6.49447C57.1224 6.49447 56.8752 6.3956 56.683 6.16483C56.4913 5.93406 56.4087 5.63735 56.4087 5.27471C56.4087 4.91208 56.4913 4.61537 56.683 4.3846C56.8752 4.15384 57.1224 4.05493 57.4242 4.05493C57.7811 4.05493 58.0279 4.15384 58.2476 4.3846C58.4123 4.61537 58.5219 4.91208 58.5219 5.27471ZM58.3847 15.5934H56.5183V7.51647H58.3847V15.5934Z" fill="#090F5A"/>
<path d="M61.0473 4.97766H62.6936V7.54908H64.0661V9.52711H62.6936V12.7579C62.6936 13.0216 62.7762 13.2194 62.9408 13.4172C63.1055 13.582 63.2977 13.681 63.517 13.681C63.7092 13.681 63.8739 13.648 64.011 13.6151C64.0936 13.582 64.1482 13.582 64.2032 13.5491V15.4612C64.0936 15.4941 63.9835 15.5601 63.8463 15.5931C63.7367 15.626 63.5996 15.659 63.4624 15.659C63.3248 15.692 63.1606 15.692 62.9684 15.692C62.2821 15.692 61.7606 15.4612 61.3766 14.9997C61.0198 14.5381 60.8276 13.8458 60.8276 12.8897V9.59303H59.6753V7.615H60.279C60.4982 7.615 60.6629 7.51612 60.8276 7.31832C60.9647 7.12051 61.0473 6.85678 61.0473 6.52714V4.97766Z" fill="#090F5A"/>
<path d="M67.0319 12.0987C67.1145 12.5273 67.2792 12.9229 67.5811 13.2196C67.883 13.5492 68.2945 13.7141 68.8162 13.7141C69.1181 13.7141 69.3649 13.6482 69.5847 13.5492C69.8045 13.4504 69.9963 13.3185 70.161 13.2196C70.3257 13.0877 70.4904 12.9229 70.6005 12.7251L71.5613 14.2086C71.369 14.4723 71.1217 14.7031 70.8198 14.9009C70.573 15.0657 70.2711 15.2306 69.9141 15.3624C69.5572 15.4943 69.1456 15.5602 68.679 15.5602C68.1849 15.5602 67.7183 15.4613 67.2792 15.2306C66.8396 15.0328 66.4556 14.7361 66.1537 14.3405C65.8243 13.9778 65.577 13.5492 65.3847 13.0547C65.1929 12.5603 65.1104 12.0327 65.1104 11.4723C65.1104 10.9119 65.1929 10.3844 65.3847 9.88993C65.577 9.39538 65.8243 8.96687 66.1537 8.60421C66.4831 8.24155 66.8396 7.94487 67.2516 7.7141C67.6632 7.51629 68.1298 7.3844 68.624 7.3844C69.0906 7.3844 69.5572 7.48333 69.9692 7.68114C70.3808 7.87895 70.7377 8.14267 71.0396 8.47232C71.3415 8.80202 71.5883 9.23059 71.7531 9.69212C71.9178 10.1537 72.0004 10.6811 72.0004 11.2086C72.0004 11.3404 72.0004 11.4723 72.0004 11.5712C72.0004 11.6701 71.9728 11.769 71.9728 11.835C71.9728 11.9339 71.9453 11.9668 71.9453 11.9668H67.0319V12.0987ZM68.5964 9.39538C68.1849 9.39538 67.8554 9.49432 67.5811 9.72508C67.3062 9.95585 67.1145 10.2196 67.0319 10.5822H70.1064C70.0238 10.2525 69.8591 9.95585 69.6122 9.72508C69.3379 9.52727 69.0084 9.39538 68.5964 9.39538Z" fill="#090F5A"/>
</svg>
